<?xml version="1.0" encoding="UTF-8" standalone="no"?>
<!-- Created with Inkscape (http://www.inkscape.org/) -->

<svg
   xmlns:dc="http://purl.org/dc/elements/1.1/"
   xmlns:cc="http://creativecommons.org/ns#"
   xmlns:rdf="http://www.w3.org/1999/02/22-rdf-syntax-ns#"
   xmlns:svg="http://www.w3.org/2000/svg"
   xmlns="http://www.w3.org/2000/svg"
   xmlns:sodipodi="http://sodipodi.sourceforge.net/DTD/sodipodi-0.dtd"
   xmlns:inkscape="http://www.inkscape.org/namespaces/inkscape"
   width="210mm"
   height="297mm"
   viewBox="0 0 210 297"
   version="1.1"
   id="svg8"
   inkscape:version="0.92.1 r15371"
   sodipodi:docname="bean.svg">
  <defs
     id="defs2" />
  <sodipodi:namedview
     id="base"
     pagecolor="#ffffff"
     bordercolor="#666666"
     borderopacity="1.0"
     inkscape:pageopacity="0.0"
     inkscape:pageshadow="2"
     inkscape:zoom="45.254834"
     inkscape:cx="655.83051"
     inkscape:cy="166.89295"
     inkscape:document-units="mm"
     inkscape:current-layer="layer1"
     showgrid="false"
     inkscape:snap-smooth-nodes="true"
     inkscape:window-width="1920"
     inkscape:window-height="1148"
     inkscape:window-x="-8"
     inkscape:window-y="-8"
     inkscape:window-maximized="1" />
  <metadata
     id="metadata5">
    <rdf:RDF>
      <cc:Work
         rdf:about="">
        <dc:format>image/svg+xml</dc:format>
        <dc:type
           rdf:resource="http://purl.org/dc/dcmitype/StillImage" />
        <dc:title></dc:title>
      </cc:Work>
    </rdf:RDF>
  </metadata>
  <g
     inkscape:label="Layer 1"
     inkscape:groupmode="layer"
     id="layer1">
    <g
       id="g3767" />
    <g
       id="g4129"
       transform="matrix(0.03527778,0,0,-0.03527778,0,5.6444446)"
       style="fill:#000000;stroke:none" />
    <g
       id="g4140"
       transform="matrix(0.03527778,0,0,-0.03527778,0,5.6444446)"
       style="fill:#000000;stroke:none" />
    <g
       id="g4214">
      <g
         transform="translate(-5.316158)"
         id="g4160">
        <path
           sodipodi:nodetypes="ccsscc"
           inkscape:connector-curvature="0"
           id="path4166"
           d="m 178.97897,253.06434 c -0.53844,-0.53844 -0.52409,-0.79883 0.0771,-1.40006 0.6389,-0.6389 2.33107,-0.96652 2.83443,-0.54877 0.54757,0.45444 0.46432,0.97824 -0.27261,1.71517 -0.75035,0.75035 -2.01068,0.86195 -2.63896,0.23366 z"
           style="fill:#aa5e29;fill-opacity:0.87843137;stroke-width:0.26458332" />
        <path
           sodipodi:nodetypes="cccccc"
           inkscape:connector-curvature="0"
           id="path4189"
           d="m 179.81072,252.72654 c -0.16373,0.005 -0.14151,-0.17632 0.23337,-0.365 0.5735,-0.30008 1.14663,-0.48082 1.49738,-0.98537 0.34419,-0.26191 0.19375,0.14458 0.19375,0.14458 -0.0553,0.20591 -0.20361,0.44112 -0.37029,0.58753 -0.49734,0.3607 -1.40871,0.61156 -1.55421,0.61826 z"
           style="fill:#de9e6b;fill-opacity:1;stroke-width:0.00835217" />
        <path
           sodipodi:nodetypes="csccccc"
           inkscape:connector-curvature="0"
           id="path4191"
           d="m 179.1804,252.07478 c -0.14518,0.005 0.0439,-0.15672 0.13846,-0.24301 0.19574,-0.17868 0.54801,-0.32453 0.62085,-0.37554 0.2919,-0.15143 0.63713,-0.26195 0.73308,-0.19039 0.0931,0.0694 -0.2106,0.19169 -0.59695,0.3904 -0.28038,0.13911 -0.67871,0.41547 -0.89544,0.41856 z"
           style="fill:#de9e6b;fill-opacity:1;stroke-width:0.00835217" />
      </g>
    </g>
    <g
       id="g4194">
      <path
         sodipodi:nodetypes="csssscscccscccc"
         inkscape:connector-curvature="0"
         id="path4097"
         d="m 173.59592,253.0058 c -0.33937,-0.31698 -0.34143,-0.59234 -0.30142,-0.72225 0.0335,-0.10863 0.11631,-0.0425 0.16225,0.15404 0.0613,0.26215 0.14413,0.27762 0.5006,-0.0333 0.55815,-0.48686 1.98773,-1.17746 1.98773,-0.98926 0,0.0742 -0.64533,0.4281 -1.0819,0.65385 -0.43656,0.22576 -0.83969,0.53718 -0.83969,0.69715 0,0.45608 1.6103,0.0309 2.28554,-0.6034 l 0.54942,-0.51779 c 0.12102,-0.10198 0.0771,0.3419 -0.0446,0.54499 -0.37312,0.7293 -1.24943,1.35859 -2.17356,1.28832 -0.33001,-0.0251 -0.7801,-0.18039 -1.0443,-0.47233 z m 2.14736,-1.86716 c -115.071575,31.36531 -57.53581,15.68265 0,0 z"
         style="fill:#400000;fill-opacity:0.8;stroke-width:0.26458332" />
    </g>
  </g>
</svg>
